/* XPM */
static char *result[] = {
/* columns rows colors chars-per-pixel */
"50 50 42 1 ",
"  c #000977",
". c #00023E",
"X c #0012B1",
"o c #00076C",
"O c #0012AE",
"+ c #0011A9",
"@ c #0010A3",
"# c #0011AC",
"$ c #000350",
"% c #0010A6",
"& c #000976",
"* c #000871",
"= c #000E99",
"- c #000F9E",
"; c #000D8D",
": c #0013B6",
"> c #000B84",
", c #000D93",
"< c #0014BA",
"1 c #000D90",
"2 c #000A7F",
"3 c #0015BF",
"4 c #000C8A",
"5 c #000453",
"6 c #020646",
"7 c #0516A0",
"8 c #000239",
"9 c #000767",
"0 c #00097A",
"q c #00012D",
"w c #000661",
"e c #74779B",
"r c #3C4071",
"t c #989CCC",
"y c #4955C1",
"u c #1727AF",
"i c #2D3365",
"p c #2A38B8",
"a c #50557F",
"s c #373F95",
"d c #2B2F6E",
"f c #222A84",
/* pixels */
"66o>;77777777777777777;>o669>;77777777777777777;>*",
"$$0O:<<<:<::XXX::::::XX#2$$&O::<<:<<::XX::::::XX#4",
"$$&#XXXX#O+++++#OOOO#+#+05$*+OOXX#O+++++#OOOO#+#+>",
"$$&%O#+XO+%%###O#OOO#pyuserfppu+XO+%%###O#OOO##%@>",
"$$&%O#+++%%+OO+%++++#yttttetyty+++%%+OO+%+++%O%%@>",
"$$&%+O+%@%%%+++@%%%@@uypsdrsuyu+%@%%%+++@%%%@@@@@>",
"$$&-@@@@@-@%@-@@@-%%-@--0$$*-@@@@@-@%@-@@@-%%-@@->",
"$$*,1=,,==--===--=-==,==0$$*,1==,===-===--=--=,==>",
"$$*4>1;;,,=1==;;111,14,,0$$o4>1;;,,=1==;;111,141,2",
"$$o220 0*oo*&*ooo*&&&022*$$o220 0*oo*&*ooo**&& 22&",
"$6666.888qqqqqqqqq888.66666666.888qqqqqqqqq888.666",
"66.......................66.......................",
"99oo9o**************o999ooo999o**************oo*o9",
"#O::X:<<333333333<<:OOO#X<X##O:<3333333333<<<OO:X@",
"#O+#XO+%%#+#O#OOO##%+O#+OX+%+O#+XO+%%###O#OOO##%%=",
"#XO##+%%#XO+++#+#O+%+OO+##%+#X#+##%%+OX#+++++O+%@-",
";;,;;44441;;4444444;444;;441;144444441;1444444444>",
"$$$$$$$$$$$$$$$$$555$$$$555555555$$$$$$$$$$$$$$$$$",
"oooooooooooooooo*@-=w5o,@--@@@%%#;ooooooooooooooo9",
"                23X+ww X:OXXX:::3=               *",
"               &2:+@ww X:#@@@@@@@1&              *",
"               &2<#-ww ::#=&ooooo*               *",
"               &2<#-w5&OX%=w555559               *",
"               &2<#@00,:X%@1444442               *",
"               &2<++:333X#%:<<<<<,&              *",
"               &2<OOO#OX#++%%%%+O1&              *",
"                2-11,;;=%%=>>>=+X1&              *",
"                &5555552@+=w$5=X:,&              *",
"                &999999>@+=*w9@:O1&              *",
"                2O:::::@%X-2  O:%;&              *",
"                2X:X::X++#-2  X:+;&              *",
"                2@%-@@----,0  :3#;&              *",
"&&&&&&&&&&&&&&&&&o99999w999* &20&&&&&&&&&&&&&&&& *",
"22>>2>>>>>>>>>>>29wwwwwwwww0>>oww*>>>>>>>>>>>22>20",
"+O::O:<<333333333<<<<33<33<3333<<333333333<<<OO<O@",
"#O##XO+%+O#OXOXXXOO%#XO#XX#++OX#O:O+%+O#OXOXXO##%-",
"OXO+##%%+OO#++#+#O+%+OO##O+%%#X#+##%%+XO#++#+#O+%-",
"1,=,111;1,,,;11;;;;;1,=,11;;11,=,1;;;1,,,;11;;;;;4",
".....8qqqq.......................................8",
"$$$$8qqqqq8$$$$$$$$$$$$$$$$$$$$$$$$$$$$$$$$$$$$$$$",
"%%+466ier686$521=%%%%%%%%%%%%%%%%-,4o$501=%%%%%%%-",
"XX:&6aeeee68$54::<<<:<::XXX::::::XX%*$5>X:<<<:::X+",
"+++w6ritia6q$5>XOOXX#O+++++OOOOO++#@o$$>OOOXX+%++@",
"+O#96rieai.q$5>#O+#X#%%%O+#O#OOO#+%-o$$2#O+#X#%+#@",
"O++26aerrr8.$5>+O#+#+%%+OO+%++%+#%@-o$$2+O#+++%OO+",
"+%@-9666..5w$5>++O%%@%%%++%@%%%@@@@-o$$2++O%%@%++-",
"-@@@=&56$9;o$5>@@-@@--%%--@@@-%@-@-=o$$2@@-@@@@@-,",
"==-=--,44=,9$52,,=,===-====-=--=,,=,o$52,,=,=--==,",
"1;;;11,;4,;9$50>4;;;,1,1=1;;;;1,;4,1o$5 44;;;,1,=1",
"&***&  02229$5&22000**o00 ***&  02229$$&22000**002"
};
