/* XPM */
static char *result[] = {
/* columns rows colors chars-per-pixel */
"50 50 56 1 ",
"  c black",
". c #CDCECE",
"X c #0C0C0C",
"o c gray1",
"O c gray73",
"+ c #E82F20",
"@ c #B6B6B6",
"# c white",
"$ c #E93223",
"% c #060606",
"& c #1D1D1D",
"* c #F9F7F7",
"= c #F4F4F4",
"- c #DFDFDF",
"; c #FCFBFB",
": c #D9D7D7",
"> c #686868",
", c #5D5D5D",
"< c gray8",
"1 c #939393",
"2 c gray27",
"3 c #7C7C7C",
"4 c gray65",
"5 c #FEFEFE",
"6 c #252525",
"7 c #4C4C4C",
"8 c #B2B2B2",
"9 c #EFEFEF",
"0 c gray52",
"q c #9D9D9D",
"w c #555555",
"e c gray90",
"r c #353535",
"t c #2D2D2D",
"y c #ED9D97",
"u c gray55",
"i c gray24",
"p c gray76",
"a c #E63A2C",
"s c #E54B3F",
"d c gray38",
"f c #EA8880",
"g c #F8E0DE",
"h c #FAEDED",
"j c #E2E2E2",
"k c gray92",
"l c #F0B6B0",
"z c #717171",
"x c #F4D0CE",
"c c gray68",
"v c #E65D51",
"b c #F0928A",
"n c #E87268",
"m c #E66459",
"M c #E7695E",
"N c #E66257",
/* pixels */
"                                                  ",
"                %oXio             o               ",
"                d&z,%72        &,wi%X             ",
"              X6pu.>8k7    o 624je8@3o            ",
"              7q=;*=#.<    Xz.9;####Ow<           ",
"              3######0X&&% 2:########O<           ",
"              3#####;pp-q<6O#########uo           ",
"              0########4& 7-#########.&           ",
"              1#######8t&%7.#########1X           ",
"             oq######5O0i%Xu*#####5*4,            ",
"             X4#####;OwX  %2:5#####.6o            ",
"  %%%%%%%%%%o&:####-><o%%%o&wu.=##5kro%%%%%%%%%%  ",
"  28888@@888@11=9##:88@@@@@@8@O:#5;pc@888@@888c2  ",
"  <w,,,0*q,,,7&w.##.e###xh###..##=3twdd,q=3,,,wX  ",
"       %cOX    2*##k*##hvy###99##=i    %84%       ",
"        ie>   %4#######y+sg#######1o   d-r        ",
"         u:&  7=######gs++f5######k2  &.0         ",
"         6:u X@######;b+$$ax######5:t 0.&         ",
"          zer7*######hs+$$+n*######9rrj>          ",
"          <p41######5*m+$$$al#######04OX          ",
"           7e4*######*M+$$$+mh######ee2           ",
"           %4;5######*N+$$$$$l######5qo           ",
"            re#######hv+$$$$+f######;w            ",
"             q#######gs$$$$$+n;######3            ",
"             u######*ya$$$$$+f#######.<           ",
"            oq#####5xa$$$$$$+y#######-&           ",
"            ik#####hf$$$$$$$+y#######j&           ",
"           X8#####;la$$$$$$$+y#######kt           ",
"           >;#####xs$$$$$$$$+f#######5>           ",
"          6:######ga$$$$$$$$+M*#######.&          ",
"         o1#######gs+$$$$$$$+f#########0          ",
"         29#######;f+$$$$$$$+y#########kr         ",
"        XO#########gs+$$$$$$+y##########4%        ",
"       o>;#########=y$$$$$$+sx##########*w        ",
"       6:##########-:v+$$$$$y############p<       ",
"      %1###5pj#####9.la$$$+vh=*###########z       ",
"      29###-t>;####51:n+++alOiO#.11-#j:###-t      ",
"  6333.####.3z@#####c.gbbbl;80k*7 rj#-.####@33dX  ",
"  >OOOO@@@@@O1>;####e@@OOO@@@.#-&%8#-@@@@@@OOO8r  ",
"  %%%%%%%%%%%o<@####4X%%%%%%od#p%i=*wo%%%%%%%%%%  ",
"               79##5>        >#c 3#8X             ",
"               oq##*7        >#1%@*7              ",
"                ik##0o      %3#@1=.<              ",
"                XO##=uX     te#5##-t              ",
"                <.###kt     <.####0o              ",
"             &6r4=###=2     X.####:>X             ",
"            ,:ek####-dX     29#####;Or            ",
"            4###55##>       ,########z            ",
"            2q1ud>81&       tO.:---.q6            ",
"                  %         oX<&666&o             "
};
