/* XPM */
static char *result[] = {
/* columns rows colors chars-per-pixel */
"50 100 37 1 ",
"  c gray9",
". c #60605F",
"X c #343534",
"o c #666766",
"O c #AC3139",
"+ c #141514",
"@ c #151615",
"# c #191919",
"$ c #040504",
"% c black",
"& c #AE3139",
"* c #4F4F4E",
"= c #777877",
"- c gray42",
"; c #565756",
": c #2B2C2A",
"> c #727372",
", c #1E1E1E",
"< c #252524",
"1 c #32302F",
"2 c #3D3938",
"3 c #A93139",
"4 c #444443",
"5 c #0E0B09",
"6 c #9A2C34",
"7 c #919291",
"8 c #808080",
"9 c #6F706F",
"0 c #3E1B1C",
"q c #742329",
"w c #4E1A1E",
"e c #88282F",
"r c #240D0D",
"t c #601D22",
"y c #6D6E6D",
"u c gray89",
"i c gray77",
/* pixels */
"%%%%%%%%%%%%%%%%%%%%%%%%%%%%%%%%%%%%%%%%%%%%%%%%%%",
"%%%%%%%%%%%%%%%%%%%%%%%%%%%%%%%%%%%%%%%%%%%%%%%%%%",
"%%%%%%%%%%%%%%%%%%%%%%%%%%%%%%%%%%%%%%%%%%%%%%%%%%",
"$$$$$$$$$$$$$$$$$$$$$$$$$$$$$$$$$$$$$$$$$$$$$$$$$$",
"                                                  ",
"##################################################",
"##################################################",
"##################################################",
"##################################################",
"##################################################",
"##################################################",
"##################################################",
"##################################################",
"##################################################",
"##################################################",
"##################################################",
"##################################################",
"##################################################",
"##################################################",
"##################################################",
"##################################################",
"##################################################",
"##################################################",
"##################################################",
"                                                  ",
"                                                  ",
"                                                  ",
"                                                  ",
"                                                  ",
"                                                  ",
"                                                  ",
"                                                  ",
"                                                  ",
"                                                  ",
"                                                  ",
"                                                  ",
"                                                  ",
"  @@@@@@@@@@@@     @@@@@@+++@@@@    @@@@@@@@@@@@@ ",
" ,1XXXXXXXXXX1,   ,1XXXXXXXXXXX:    <XXXXXXXXXXX:#",
"@.7oooooooooo8;+ @*8oooooooooo-8<  ,89ooooooooo>7:",
"@X8y--y.:=---8;+ @*8.5$$5r$$$<=8<@ ,8>--9o:----=.#",
" @<XXXX-;8*XX1,   #y.$$%0q5$$#72    <XX1o9o;1XX1#@",
"  @@@@+:=*o@@@   @<=#$$5q3w$$$4.@    @@,>*9#@@@@  ",
"        ;;>X@    +.*$$$03O6r$$5>X@    @;.92@      ",
"        <=*y    @1=+$$5eOO3t$$$2y    @:=*-        ",
"        @*.-4@   -2$$$w3OO36r$$5-2@@  .;>1@       ",
"        @,>*>, @295$$5eOO3OOt$$$:>, @1>;.@        ",
"         @4-o*@#>1$$$w3OO&&O6r$$$.*@ -*=<         ",
"          #y*=,4o$$$reOOO&O3Oq5$$,=,29.;@         ",
"           X9;.=<$$$t3OO3OOOO60$$$;.>*=,@         ",
"            o*7.$$$r6OOOOOOOOOq5$$+7yo4@          ",
"          @@1>2@$$5tOOOOOOOOOO30$$$:4>#           ",
"            @>1%$$r6OOOOOOOOOOOe5$$$.*+           ",
"           @1>+$$5qOOOOOOOOOOOO3w$$$X9#           ",
"          @ o4$$$06OOOOOOOOOOOOOer$$$-4+          ",
"          @2>5$$$q3O&OOOOOOOOOO&Ow$$$:=,          ",
"          #9X%$$ w3OOOOOOOOOOOOO60+$$$.*@         ",
"          4-5$$ 72e&OOOOOOOOOOO3t.85$$,=<         ",
"        @,=:$$$;=-w3OOOOOOOOOOOe1==2$$$*.@        ",
"        +*.$$$,=<-4qOOOOOOOOOOOwo41>5$$+=:@       ",
"       @<=,$$$.*+1>06OOOOOOOOOe2>#@o4$$$4o        ",
"        ;*$$$:=,@@.*qOOOOOOOO3wy2@@:=+$$5>2@      ",
"      @:=+$$$o4@ +:=06OOOO&3Oq4-   +.*$$%X>#      ",
"      @o4$$$1>,  @+;;t3&OOO330>1@@ @<=#$$$o4+     ",
"     @X>5$$5y2@  @@<=16&33O&q*.+@   @*;$$$<=,     ",
"  @@@#92$$$2- @   @+*.t3&O&60=<+@   @,=<$$$.*@ @@ ",
"@#;y-=o$$$$=8-2@ @1y>7:e666t*7-.,@ #;y7.%$%@=y--X@",
"@*7;*;2:::1**=.+ @;8**X222214;;7<@@<7.*4::::4;;o7:",
"@2o...........X@ @1............;#  #*............<",
" @@@@+@@++++++@   @@@+++++++++@@    @@@@@@ @@@@@+ ",
"                                                  ",
"                                                  ",
"                                                  ",
"                                                  ",
"                                                  ",
"                                                  ",
"                                                  ",
"                                                  ",
"                                                  ",
"                                                  ",
"                                                  ",
"                                                  ",
"                                                  ",
"                                                  ",
"##################################################",
"##################################################",
"##################################################",
"##################################################",
"##################################################",
"##################################################",
"##################################################",
"##################################################",
"##################################################",
"##################################################",
"##################################################",
"############################################### @ ",
"############################################## :=7",
"############################################# <7uu",
"#############################################@*uii",
"############################################# ;ui7"
};
