/* XPM */
static char *result[] = {
/* columns rows colors chars-per-pixel */
"20 20 22 1 ",
"  c #000977",
". c #000760",
"X c #010869",
"o c #000E95",
"O c #000F9F",
"+ c #000C8B",
"@ c #000A80",
"# c #0010A4",
"$ c #0012AC",
"% c #0011A7",
"& c #000B88",
"* c #000D8E",
"= c #000453",
"- c #01054A",
"; c #000E98",
": c #000973",
"> c #1826A9",
", c #3E49B1",
"< c #444871",
"1 c #3F446E",
"2 c #494D8C",
"3 c #202570",
/* pixels */
"=o$$$%$$%+=o$$$%$$%o",
".O$$%$$$>,2,>$%$$$$;",
"=o######>>3>%O####Oo",
"= @@@@@@@ = @@@@@@@@",
"===-----=====-----==",
"OOO#%%%OOOOO###%%#O;",
"**++*++++*+**++*+++&",
"XXXXXX +.&oo;@XXXXXX",
"      +#X#O@@       ",
"      +%o$#**@     :",
"      @**OO+%*     :",
"       @@;;:%*     :",
"     :@;Oo+@O&:    :",
"*oo;;;o&&&+o*o;;;oo*",
"%%#%%%%#%%##%%#%%%#O",
"..--=...............",
"OX1<-XO%##O##O:.O%#O",
"$:<1-X$$$$$$$$ X$$$%",
"#oX..XOOO####O XOO#O",
"&&&&:.&&&+&&++:.&&++"
};
