/* XPM */
static char *result[] = {
/* columns rows colors chars-per-pixel */
"70 70 241 2 ",
"   c #3B2F1F",
".  c #1F2C37",
"X  c #242A2F",
"o  c #223C2C",
"O  c #353C2E",
"+  c #2B2D37",
"@  c #27253C",
"#  c #2C2C3F",
"$  c #302336",
"%  c #3A2C3C",
"&  c #253334",
"*  c #28353C",
"=  c #433721",
"-  c #423D21",
";  c #224116",
":  c #2A481E",
">  c #2E581C",
",  c #27472E",
"<  c #3B4729",
"1  c #2E5D25",
"2  c #2B5A2C",
"3  c #214D31",
"4  c #2C4038",
"5  c #384A33",
"6  c #2C593C",
"7  c #315233",
"8  c #2A6B2E",
"9  c #356520",
"0  c #2B7A2C",
"q  c #337A26",
"w  c #3A7A23",
"e  c #3E7128",
"r  c #256332",
"t  c #2C643D",
"y  c #276B39",
"u  c #336337",
"i  c #3D6D34",
"p  c #326A3A",
"a  c #287E37",
"s  c #2C7338",
"d  c #2F7A3D",
"f  c #317F36",
"g  c #50552B",
"h  c #40413E",
"j  c #504334",
"k  c #5E4C3D",
"l  c #54733F",
"z  c #242A46",
"x  c #322044",
"c  c #283849",
"v  c #353146",
"b  c #323F44",
"n  c #3D394C",
"m  c #30295B",
"M  c #2E3D5D",
"N  c #533342",
"B  c #403759",
"V  c #6A3E49",
"C  c #2D4A40",
"Z  c #364C40",
"A  c #37494A",
"S  c #2C5E42",
"D  c #335440",
"F  c #3B5346",
"G  c #3F5A40",
"H  c #3E5D47",
"J  c #32554B",
"K  c #224655",
"L  c #315556",
"P  c #3D5055",
"I  c #335D51",
"U  c #2D6B42",
"Y  c #376442",
"T  c #336F46",
"R  c #247741",
"E  c #337542",
"W  c #337847",
"Q  c #3C7E46",
"!  c #3A734A",
"~  c #3B6A53",
"^  c #3B6670",
"/  c #424655",
"(  c #554353",
")  c #5F5650",
"_  c #6B4C4D",
"`  c #78534F",
"'  c #4B6540",
"]  c #416E44",
"[  c #436054",
"{  c #516D58",
"}  c #437358",
"|  c #6B7346",
" . c #5B4967",
".. c #495B64",
"X. c #725868",
"o. c #5F606C",
"O. c #4E7B67",
"+. c #4F687F",
"@. c #477F7E",
"#. c #637776",
"$. c #8F5D59",
"%. c #9D745E",
"&. c #846F66",
"*. c #32831F",
"=. c #308325",
"-. c #348124",
";. c #398427",
":. c #318B2E",
">. c #348B2C",
",. c #398D28",
"<. c #268630",
"1. c #2D8F37",
"2. c #2D8639",
"3. c #289631",
"4. c #2B9F30",
"5. c #2D983B",
"6. c #309533",
"7. c #3B9337",
"8. c #339F32",
"9. c #3B9E36",
"0. c #32A833",
"q. c #31A13D",
"w. c #3BAB38",
"e. c #37BB37",
"r. c #3EBD3E",
"t. c #41B737",
"y. c #3FC036",
"u. c #32C63C",
"i. c #38C13F",
"p. c #46C031",
"a. c #4EC637",
"s. c #40C33D",
"d. c #49C23C",
"f. c #4BCD3B",
"g. c #55CD3D",
"h. c #50D63B",
"j. c #5CD33F",
"k. c #66E23E",
"l. c #2B8641",
"z. c #308044",
"x. c #368546",
"c. c #3A8640",
"v. c #358D41",
"b. c #3C804E",
"n. c #398B4A",
"m. c #2E9041",
"M. c #2F9745",
"N. c #399E45",
"B. c #3F994E",
"V. c #35AA41",
"C. c #3BA946",
"Z. c #3BAF4F",
"A. c #3AB141",
"S. c #3BBC44",
"D. c #3CB64A",
"F. c #508A49",
"G. c #498352",
"H. c #518E5A",
"J. c #59975B",
"K. c #649152",
"L. c #42AF47",
"P. c #44A54F",
"I. c #4BB241",
"U. c #46B944",
"Y. c #40BD4C",
"T. c #4DAF55",
"R. c #44B550",
"E. c #448368",
"W. c #4A866A",
"Q. c #4E8769",
"!. c #578D60",
"~. c #5F976C",
"^. c #538E7E",
"/. c #619B67",
"(. c #799E79",
"). c #71AB71",
"_. c #7FB774",
"`. c #7EB079",
"'. c #34C14B",
"]. c #45C740",
"[. c #4CCD46",
"{. c #54C046",
"}. c #55C84A",
"|. c #54D342",
" X c #5DD745",
".X c #54D34D",
"XX c #5CD149",
"oX c #5FDD49",
"OX c #5AD94C",
"+X c #5FC852",
"@X c #5DDC52",
"#X c #65D941",
"$X c #68DF41",
"%X c #64DC4B",
"&X c #68DD49",
"*X c #6CDF48",
"=X c #6FDD4F",
"-X c #65D651",
";X c #62D255",
":X c #64DC54",
">X c #6ADC5A",
",X c #5FE250",
"<X c #65E046",
"1X c #65E545",
"2X c #6EE041",
"3X c #68E144",
"4X c #6BE144",
"5X c #69E146",
"6X c #68E047",
"7X c #65E14A",
"8X c #62E449",
"9X c #66E24E",
"0X c #69E149",
"qX c #6BE148",
"wX c #68E249",
"eX c #6EE14B",
"rX c #6AE04D",
"tX c #71E145",
"yX c #71E649",
"uX c #75E44C",
"iX c #7CE64B",
"pX c #76E94D",
"aX c #7DEB4C",
"sX c #64E253",
"dX c #6AE052",
"fX c #7EED56",
"gX c #8A9670",
"hX c #AC8B61",
"jX c #80EF4F",
"kX c #8EF24F",
"lX c #94F04F",
"zX c #86EF51",
"xX c #89F451",
"cX c #8DF255",
"vX c #87F359",
"bX c #497E8C",
"nX c #508187",
"mX c #778489",
"MX c #609496",
"NX c #8ABC88",
"BX c None",
/* pixels */
"BXBXBXBXBXBXBXBXBXBXBXBXBXBXBXBXBXBXBXBXBXBXBXBXBXBXBXBXBXBXBXBXBXBXBXBXBXBXBXBXBXBXBXBXBXBXBXBXBXBXBXBXBXBXBXBXBXBXBXBXBXBXBXBXBXBXBXBXBXBX",
"BXBXBXBXBXBXBXBXBXBXBXBXBXBXBXBXBXBXBXBXBXBXBXBXBX;.q ;.BXBXBXBXBXBX;.*.*.*.;.BXBXw *.*.*.*.*.9 BXBXBXBXBXBXBXBXBXBXBXBXBXBXBXBXBXBXBXBXBXBX",
"BXBXBXBXBXBXBXBXBXBXBXBXBXBXBXBXw ,.,.*.e BXBX;.7.6.7.:.>.,.,.,.,.>.:.5.5.6.:.=.>.<.6.8.w.L.T.c.e BXBXBXBXBXBXBXBXBXBXBXBXBXBXBXBXBXBXBXBXBX",
"BXBXBXBXBXBXBXBXBXBXBXBXBXBXBXBX=.8.w.I.7.-.>.A.D.D.q.8.8.{.-X;X+XI.q.q.D.D.A.3.3.3.A.S.S.Y.R.M.a u q w BXBXBXBXBXBXBXBXBXBXBXBXBXBXBXBXBXBX",
"BXBXBXBXBXBXBXBXBXBXBXBXBXBXBXBX6.S.s.d.I.9.L.Y.S.S.S.U.+X-X=X=XrX-X}.t.t.s.S.S.8.8.r.s.r.S.S.D.M.z.c.0 w BXBXBXBXBXBXBXBXBXBXBXBXBXBXBXBXBX",
"BXBXBXBXBXBXBXBXBXBXBXBX;.;.q >.8.Y.@X:X-X;X;X.Xd.y.r.}.-X=X=X*X3X<X&Xj.p.p.s.@X;XXX-X%XOX].e.S.V.m.v.2.0 > 9 9 w BXBXBXBXBXBXBXBXBXBXBXBXBX",
"BXBXBXBXBXBXBXBXBXBXBXBX:.v.m.3.3.t.:XsXdX=X=X%X%X Xa.j.&X6X0X0X0X0X0XrXXXa. X:XdXdXrXrX9Xf.y.i.V.5.5.3.<.0 i i p > BXBXBXBXBXBXBXBXBXBXBXBX",
"BXBXBXBXBXBXBXBXBXBXBXe :.N.Z.C.w.d.dX9XwX*X=XeXeXeX#X#X&X6X0X0X0X0X0X0X%Xa.%XrXrX0X0X0XrXg.y.[..X+X+X+X+XT.f E U ; BXBXBXBXBXBXBXBXBXBXBXBX",
"BXBXBXBXBXBXBXBXBXBXw -.<.q.D.D.r.].9X1X5XyXfXfXfXvXfXeX&X&X6X6X0X0X0X0X&Xj.&X&X6X6X5X5X*Xg.g.:X:XdXrXrX=X+X:.l.R r 9 BXBXBXBXBXBXBXBXBXBXBX",
"BXBXBXBXBXBXBXBXw >.<.6.8.q.U.r.y.f.8X1X3XyXvXvXcXcXvXfXuX*X&X6X0X0X0X0XqX6X<X$X<X3X3X$X2X#X#XrXrXeX4X3X3X Xw.C.B.2.0 ; , BXBXBXBXBXBXBXBXBX",
"BXBXBXBXBXBXBXw 9.V.V.Y.+X}.XX|.|.|.h.1X3XtXvXcXcXcXaXpXeX*X*X*X*XqX0X0X0X6X6X6X7X6X2XiXjXjXjXyXrXdX&X3Xk.oXs.S.Y.C.2.p H H : BXBXBXBXBXBXBX",
"BXBXBXBXBXBXBXq C.'.'..X>X>X=X9X9X Xf.<X3XyXvXzXaXiXtX*X*X*X*X*X*XqX0X0X0X0X6X6X7X6X4XaXvXvXvXfXyXrXrX6X<X Xy.y.r.A.1.W } } 1 BXBXBXBXBXBXBX",
"BXBXBXBXBXBXw >.9.D.A.}.>XrX&X&XrX%Xj.<X3X4XpXpXtX2X2X*X*X*X*X*X*XqX0X0X0X0X0X6X7XwXyXiXzXcXcXvXaX3XwXoXg.f.y.e.y.A.:.a y U 2 9 BXBXBXBXBXBX",
"BXBXBXBX;.7.N.1.<.9.8.{.dX8X8XrX&X&X&X<X$X$X$X4X4X4X4X*X*X*X*X*X*XqX0X0X0X0X0X0XwX6X4X2XiXzXzXcXaX3X#Xg.|..X.X[.r.C.1.<.0 8 r i < BXBXBXBXBX",
"BXBXBXBX,.P.R.q.3.q.0.}.sX8X8X9X7X<X3X*XqXqX5X5X5X4X4X5X5X5X5X5X5X6X6X6X6X6X6X5XwX6X4X4X4X$XyXpXyXwXj.g.9XsXsX,X[.8.6.1.2.s p ] 5 BXBXBXBXBX",
"BXBXBXBX,.P.C.4.V.Y.S.[.@X9X7XrXyXpXyXtX*X5X6X5X5X4X4X5X5X5X5X5X5X5X5X5X5X5X5X5X6X5X4X5X5X$X5XqXwX<X<X9X7X9X9X9X%XU.6.:.c.8 p ] 7 BXBXBXBXBX",
"BXBXBXBX=.2.1.3.A.S.i.s.f. X=XtXaXxXzXuX2X$X3X5X4X5X5X5X5X5X5X5X5X5X5X5X5X5X5X5X5X5X5X5X3X3X5XwXwX<X<X7X<X6X6X6X&X;X9.1.x.y r p 2 9 BXBXBXBX",
"BXBXw i f 1.<.1.A.i.u.f.f.-X=XzXcXkXkXjX2Xk.k.3X5X5X5X5X5X5X5X5X5X5X5X5X5X5X5X5X5X5X5X5X6X3X6X6X<X7XwX<X6X4X$X$X*X-X9.v.n.U t y s 8 e BXBXBX",
"BXBXq P.R.D.N.5.A.s.h.8XrX=XiXlXlXlXlXzXyX4X3X5X5X5X5X5X5X5X5X5X5X5X5X5X5X5X5X5X5X5X5X5X5X5X6X6X0X<X<XwXwX6X5X5X0X%X0.q.n.E U Q n.d 1 BXBXBX",
"BXBXq Z.Y.i.L.q.w.|.1X1XqX=XiXlXlXlXcXxXjXqX&X6X5X5X5X5X5X5X5X5X5X5X5X5X5X5X5X5X5X5X5X5X5X5X6X6X<X<X<X%X7X7X9XrX%X Xs.D.M.z.E Q n.x.r BXBXBX",
"BXBX*.Z.Y.i.D.A.0.g.rXrXqX0XiXcXkXcXcXxXjXeX0X6X5X5X6X6X6X6X6X0X0X0X0X0X0X0X0X5X5X5X5X5X5X5X6X0X6X<Xj.g.oX,XoXOX Xd.i.'.Z.M.z.Q x.x.8 BXBXBX",
"BXBX*.P.R.r.S.A.0.{.>X=XqX1XpXcXcXkXcXxXfXeXrX6X4X5X6X0X0X0X0X0X0X0X0X0X0X0X0X0X5X5X5X5X5X5X0X0X6X<X<Xj.a.].s.s.s.r.i.'.'.T.n.E b.Q 2 BXBXBX",
"BXBXq 1.L.t.0.0.4.}.dX0X0XqXpXzXzXxXxXjXyX*X0X4X4X5X0XwXwXwXwX0XqXqXqX0X0X0X0X6X3X3X3X3X5XwX0X0XwXwX Xh.oXXXy.y.].U.i.'.'.Z.f p ~ Y : BXBXBX",
"BXBXJ.0 1.I.+X;XY..X,X1XwX&X=XeXtX2X2X2X$X*X*X2X2X4X6X7X7X7X7X0X*X*X*X*X0X0X5X3X3X3X$X$X6X6X6X6X5X3XoXoX9X&X%X:XOXd.i.'.'.q.s 6 C o BXBXBXBX",
"BXBXu 8 0 +X>X:X[..X9X<X%XXXg.&X*X4X4X$X4X*XeXaXjXuXqX0X0X0X0X0X0X0X0X0X0X0X5X6X3X3X3X$X4X4X4X*XtX4X<X9X9X*X&X9XsXXXs.'.D.m.y 6 6 3 BXBXBXBX",
"BXe i U 0 +X%X,XoXg.a.a.a.d.d.XX9X7X3X$X$X&XeXzXcXzXuX*X*X*X*XrXwXwX7X7X0X0X0X5X6X3X$X$XpXjXjXjXiXtXeXrXrX$X4X9X9X%Xs.D.N.z.T Y T t u BXBXBX",
"BX> ] W 2.+X8X8X7X#X XXXa.r.].OX9X0X3X2X4X&XeXzXvXvXuX&XrX*X*X0X7X7X7X7X0X0X6X6X<X<X$XpXzXxXxXxXzXiXeXdXrX4X4XwX9XoX0.5.l.z.W E E s s 9 BXBX",
"BX> z.l.3.XX7X7X9X7XdX>X}.d.%XfXjXjXzXaXtX*XrXpXpXpXeX9X,X7X6X6X0X0X0X0X0X6X<X<X8X<XtXzXkXkXkXkXkXaX*X9XsXqX*X0XrXOXq.l.z.z.v.f d 2.x.p BXBX",
"BX> H.P.5.{.>X>XdX9XsX.Xd.XXfXjXxXkXkXzXjXeX&X6X5X5XeX9X7XwXtXtX*X*XeXqX6X0X7X<X8X<X2XzXkXkXlXkXkXaX*XsX,X<X<X<X7XOXq.m.n.v.1.f Q n.n.U BXBX",
"BX> ~.~.B.7.P.I.U.a.[.].p.#XxXxXkXlXlXxXvX*X0X5X4XqXqX0X0X$XuXaXaXaXaX2X&X0X0X7X8X<X2XzXkXkXkXcXkXiX#X XsX8X8X8X8XOX0.m.v.1.6.f Q G.} D BXBX",
"BXe i i 8 8 0 9.I.a.[.].p.#XxXkXkXlXlXxXfXj.<XqX4X6X6X0X3XtXjXxXxXxXzXiXpXrX&XwX7X<X2XiXzXcXcXcXcXaXj.d.|.h.h.h.h.f.w.N.v.5.6.0 6 D 5 O BXBX",
"BXBXBXBX; 2 7.{.-X<X,XOXa.&XvXxXkXlXlXcXuXp.OX4X4X6X7X7X3XaXxXxXkXkXkXcXvXuX*X5X6X6X$X2XpXaXaXaXaXuXXXr.].f.f.f.y.u.S.T.P.5.m.s C 4 X < BXBX",
"BXBXBXBX1 8 I.-X&X$XoX,Xg.-XvXvXvXcXzXuXg.p.sXpXtX5X7X7X<XyXjXxXxXxXxXzXiXtX*X5X6X5XqXqX4X4X4X4X$X5X.Xs..X%X<X%X[.u.i.Y.R.N.v.s 6 F 5 ' BXBX",
"BXBXBX9 0 :.XXrX*X$X7XsXg.g.=XrXrXdX%Xg.p.j.fXzXaXpXrX7X7X3XtXjXxXxXzXiXtX2X5X<XoX<XwXwXwXwX0XqX4XwX.X[.@XrX*XrX:Xs.u.i.S.5.z.U S Y D 5 BXBX",
"BXBXBXq 7.w.#X4X$X$X9XOXg.a.a.p.y.s.i.e.a.fXcXcXcXvXpX9XoX0X4XtXaXjXiX2XtX2X3X<Xg. X%X7X7X7X0X0X3X5X.X[.,X7X5XrX:Xs.u.u.e.1.s t U E Y 7 BXBX",
"BXBXBX*.C.].oX7XrXdX>XXXXXrX Xa.a.p.y.e.a.fXlXlXlXcXcXpX&X#X#X*X*X2X2X2X2X$X<XwX%Xa. XrXrXrXrXeX*XtXXX].OX X XOX.XS.i.u.r.m.T U U E ! 7 BXBX",
"BXBXBX-.P.Y..X|.XX+X+X-XdXrX&X%X%Xj.p.y.a.fXcXcXcXlXcXuX&Xg.g.%XrX0X$Xk.k.1X9X9X Xa.j.%XrXdXdXdX=X=XXXy.s.t.t.y.r.Y.S.S.U.v.W T U U ~ 7 BXBX",
"BXBX9 8 P.C.e.0.4.8.4.d.dXrXrXrXrX Xp.y.d.dXfXfXfXfX=X%Xf.p.p.f.:XsX7X8X8X9XsXOXd.y.y.y..X@X@X@X@X@X[.i.e.4.4.A.A.D.Z.P.P.v.z.W U S D 7 BXBX",
"BXBX1 8 f 2.4.4.5.5.3.d.dX0X7X%X7X Xp.d.d.d.d.d.s.d.d.s.y.y.s.s.[.@X,X,X,X@X.X].i.i.i.i.s.s.s.s.i.u.u.'.'.Z.q.5.5.3.2.z.f c.v.c.Y D 4 G BXBX",
"BX9 p s f 2.C.D.Z.M.3.d.9X7X9X9X%X%X%X-XXXs.y.r.S.S.r.r.s.s..X.XY.].[.OX.X].s.r.i.i.i.e.S.S.i.i.u.u.u.'.'.Y.Z.M.m.5.x.W d c.7.c.6 4 4 G BXBX",
"BX> b.x.f 2.L.U.R.M.5.U.-X-X-XXXd.g.:X=X%XOXOX].Y.Y.r.s..X,X,X@X@X[.y.y.y.y.s.s.s.s.i.e.0.V.S.i.u.'.u.'.i.'.D.M.m.m.n.W d c.c.Q 7 4 F 5 BXBX",
"BX> } b.f 0 N.P.P.B.m.9.9.9.9.8.0.].,X&X&XrXrX;Xw.4.}.@X8X1X1X1X7X|.t.t.p.d.|.oXOXOX[.r.q.5.A.S.i.u.i.i.i.'.D.1.l.m.n.z.y t 3 3 o 3 S 3 BXBX",
"BX: } } Q d s s s d l.1.6.1.1.6.0.].,X1X3X4X*X-X9.3.}.dXwX1Xk.k.k.XXw.w.j. X%X7X1XwXOXU.N.m.C.R.S.r.r.r.S.Y.C.2.x.n.m.a t J A C 3 r ] 7 BXBX",
"BX, : C 3 S r r r s B.L.L.q.m.v.q.].,X8XwX*X=X{.8.3.I.;X%X%XwXwX XU.5.q.}.&X$X$Xk.6X-XA.m.l.1.C.R.D.R.R.T.P.v.s p d a a t A / P Y p ] 7 BXBX",
"BXBXBX: 4 D 6 S U y N.Y.S.D.N.l.1.L.>X:X>X>X;Xw.3.3.q.w.}.>X>X;XR.M.m.M.C.}.$X$X6XdX>XV.m.l.a 2.1.1.<.f d d s p T E d E S 4 * A H ] [ 7 BXBX",
"BXBXBX: 7 Y p T T y N.Y.S.Y.P.l.a 1.N.9.w.w.w.4.V.C.5.3.q.L.L.C.M.m.m.M.5.w.g.&XdX>XU.8.m.z.a 0 a s r r r 8 s W ! T ! ~ C & * 4 4 4 5 o BXBX",
"BXBXBX; D ] c.z.W E f 1.3.5.v.z.d d s f 0 <.8.w.D.R.q.6.1.1.1.m.P.C.q.5.M.5.0.t.{.U.4.3.m.l.2.2.2.d y t T d d W T 3 C b . 4 Z o X C [ G BXBX",
"BXBXBXh Z ] c.x.W E s 8 a x.z.l.z.E E ! d 1.L.R.R.R.C.8.6.1.2.l.P.I.t.3.l.M.V.0.8.3.3.3.m.z.l.v.v.z.y t ! d d z.W o . @ c D D C & L W.!.BXBX",
"BXBX- ( $ 5 2 p t E E E Q b.n.v.x.W b.x.l.<.N.R.R.R.R.q.6.2.E W n.P.N.<.a m.R.S.0.0.V.3.l.W W x.M.l.p Y ] f 2.n.b.& . c L J S H 4 I W./.BXBX",
"BXBX= V _ k j j 7 T W W E E ! ! d a N.C.N.2.v.B.B.N.N.1.<.f d d z.v.2.a d 2.q.Y.R.Z.C.m.E Y Y s d s p Y ! d x.b.{ * . c P F [ [ b I W./.BXBX",
"BXBX= V %.%.$._ 5 ] b.z.s r D F r <.U.S.L.v.x.f a d d s d 2.2.<.2.a a d W d <.V.N.N.m.d t D D 2 r r 6 S U y U H F + @ @ v b A P c L W.!.BXBX",
"BXBX- k $.$.$._ O 6 b.x.W p Z Z 2 0 U.U.L.N.c.d s y U ! b.B.N.5.1.a d W ! z.2.<.<.l.z.U S J J t y t 6 6 S 6 3 & X . @ $ % % X . . L W.G.BXBX",
"BXBXl O k &.$._ ( 4 D ~ I J b X o Y H.B.B.H.Q s 8 r t E B.T.Y.A.q.M.x.W Q x.v.<.<.a E Y 6 S T E E ~ D o Z F A & X # # x B v v * * ~ W.!.BXBX",
"BXBXBX2 F &.` V V N $ X . @ # & & * A 6 t t r r y t t r c.T.R.Y.R.B.E t d c.v.1.7.f ! H 6 U E d W ~ Z X & A A . + / / x x n / b [ W.W.K.BXBX",
"BXBXBXF.t gX) N V N % + X x v J C * * 4 D 6 6 t ! ! Y r r x.P.P.B.W S 6 t Q c.v.n.Q H A D Y T E W Y 4 X 4 J J . + n n z z ..A 4 ~ W.H.BXBXBX",
"BXBXBXBXH.`.F + % + ..J . # n J J J J F F Z F [ } ~ T t r r y y y S I J 6 p Q x.z.t A # b D Y Y Y H 4 o I ~ I . X + # z z ..J I O.H./.BXBXBX",
"BXBXBXBX_.`.H.S ~ 6 ~.} . @ / [ [ J D Z & + / P [ H D 6 S S S S S J P A 6 t t 6 6 J * # + & o o & & 4 A J I L * @ # ..K c ^ O.W.H.F.BXBXBXBX",
"BXBXBXBXBXBX_.).!.H.`.~.F $ n [ [ A A & X & * + + + & C S Y ~ ~ [ b * Z 7 6 C & + + + b A A * X @ @ @ & & * * n M c +.O.W.W.!.).BXBXBXBXBXBX",
"BXBXBXBXBXBXBXBXBX_.NXNX{       O + @ # A Z C & X + b H Y Y ] H b + X * Z C * @ $ # & J ~ [ b $ $ $ $ $ @ $ @ z c M +.@.(._.BXBXBXBXBXBXBXBX",
"BXBXBXBXBXBXBXBXBXBXBXBXg j ` ` _ N $ v / [ H A + . * Z H H 7 o X $ $ + * * z x x n A [ ~ [ b $ $ * n n x x z M ^ ^ bX@.Q.BXBXBXBXBXBXBXBXBX",
"BXBXBXBXBXBXBXBXBXBXBXBXBXk &.%.%.` V N % O O + + $ + & 4 * X X # n n v . @ x x x x # O o 4 + @ v Z / B m m m K @.@.bXbXQ.BXBXBXBXBXBXBXBXBX",
"BXBXBXBXBXBXBXBXBXBXBXBXBXj X.%.hX%.%.%.` _ j $ $ $ $ + + @ x x x v v # X X $ x x x % ( ) ) n x % + v m m m M K @.MXbX@.Q.BXBXBXBXBXBXBXBXBX",
"BXBXBXBXBXBXBXBXBXBXBXBXBX= ( &.hXhXhX%.$.` V N $ $ $ / c @ x @ # . . C { b o.v @ n ( X.X.&.X. .( ( ( B B  .M ^ bXMX@.@.^.BXBXBXBXBXBXBXBXBX",
"BXBXBXBXBXBXBXBXBXBXBXBXBXBXO &.hX%.%.$.` V k o.v + o...& . @ b { O.I } O.C #.* . n  . .X.X.X.X.X. . .o.+.M M +.bXMX@.E.BXBXBXBXBXBXBXBXBXBX",
"BXBXBXBXBXBXBXBXBXBXBXBXBXBX> | gX| %.` _ _ &.( + X mX[ H F 4 { ~.~.H.H.G.] { F 4 o. .B ..#.X._  .( B +.MXK ^ bXbXbX@.^.BXBXBXBXBXBXBXBXBXBX",
"BXBXBXBXBXBXBXBXBXBXBXBXBXBXBXK.gX| gXk k k gXh X o O.} W.O.{ !.Q.J.BXBXBXBXBXBXe (.P z A mX#.o.o.n M +.bX^ @.@.@.bX^.BXBXBXBXBXBXBXBXBXBXBX",
"BXBXBXBXBXBXBXBXBXBXBXBXBXBXBXBXBXK.(.' ' ' (.' u u E.E.Q.J.BXBXBXBXBXBXBXBXBXBXBXBXBX, , Q.O.O.#.P ..nX^.^.BXBXBXBXBXBXBXBXBXBXBXBXBXBXBXBX",
"BXBXBXBXBXBXBXBXBXBXBXBXBXBXBXBXBXBXBXBXBXBXBXBXBXBXBXBXBXBXBXBXBXBXBXBXBXBXBXBXBXBXBXBXBXBXBXBXBXBXBXBXBXBXBXBXBXBXBXBXBXBXBXBXBXBXBXBXBXBX",
"BXBXBXBXBXBXBXBXBXBXBXBXBXBXBXBXBXBXBXBXBXBXBXBXBXBXBXBXBXBXBXBXBXBXBXBXBXBXBXBXBXBXBXBXBXBXBXBXBXBXBXBXBXBXBXBXBXBXBXBXBXBXBXBXBXBXBXBXBXBX",
"BXBXBXBXBXBXBXBXBXBXBXBXBXBXBXBXBXBXBXBXBXBXBXBXBXBXBXBXBXBXBXBXBXBXBXBXBXBXBXBXBXBXBXBXBXBXBXBXBXBXBXBXBXBXBXBXBXBXBXBXBXBXBXBXBXBXBXBXBXBX"
};
