/* XPM */
static char *result[] = {
/* columns rows colors chars-per-pixel */
"70 70 12 1 ",
"  c #76AA83",
". c #76AA82",
"X c #76AA81",
"o c #80B488",
"O c #6FA575",
"+ c #5F8F6F",
"@ c #9CD0A6",
"# c #7AAE85",
"$ c #507F5E",
"% c #71A380",
"& c #8DC197",
"* c #6C9E7A",
/* pixels */
".                                                                   .o",
".                                                                   .o",
"  .                                                                 .o",
" .X                                                                 .o",
" .X                                                                  X",
" .X                                                                  O",
" .X                                                                 .O",
" .X                                                                  O",
" .X                                                                  O",
" .X                                                                  O",
" .X                                                                  O",
"  .                                                                  O",
"                                                                     O",
"                                                                     O",
"                                                                     O",
"                                                                     O",
"                                                                     O",
"                                                                     X",
".                                                                    o",
".                                                                    o",
".                                                                    o",
".                                                                    o",
".                                                                    o",
".                                                                    o",
".                                                                    o",
".                                                                   Xo",
".                                                                    o",
".                                                                    o",
"                                                                     %",
"  ..                         .....                                   O",
"  X.                         %**%  .%*%                              O",
"  X.                         *$$+  *$$+   .                          O",
"  X.                        ++++++++++++% X                          O",
"  X.                       %+$% *$$+  +$* X                          O",
"  X.                        $$   %%%  +$* X                          O",
"  X.                        o#      .X#o#XX.                         O",
"  X.                        @@o#.    o&@oXXX.                        O",
"  ..                      XX &@o.   #@@o#X...                        O",
"                          XXXo&@&XXo@&oXX.                           O",
"                          XXX.#@@oo&@oXX.                            O",
"                          XXXX.#&@@@#XX.                             O",
"                          .XXX.Xo&&oXX                              .#",
".                               XXX..                                o",
".                                                                   .o",
".                                                                    o",
".                                                                   .o",
".                                                                    o",
".                                                                   .o",
".                                                                    o",
".                                                                    o",
".                                                                    o",
".                                                                    #",
".                                                                    *",
"                                                                     O",
"                                                                     O",
"                                                                     O",
"                                                                     O",
"                                                                     O",
"                                                                     O",
"                                                                     O",
"                                                                     O",
"                                                                     O",
"                                                                     O",
"                                                                     O",
"                                                                     O",
"X                                                                   Xo",
"X                                                                    o",
"X                                                                    o",
"X                                                                   .o",
"X                                                                   .o"
};
